<svg width="50" height="50" viewBox="0 0 50 50" fill="none" xmlns="http://www.w3.org/2000/svg">
<rect width="50" height="50" rx="8" fill="#0396A1"/>
<path d="M12.025 10C10.3705 10 10 11.3614 10 13.0355V31.2486C10 32.9227 11.3455 34.2841 13 34.2841H17.5V40L26.9155 34.2841H37C38.6545 34.2841 40 32.9227 40 31.2486V26.6953H37V31.2486H26.0845L20.5 34.6393V31.2486H13V13.0355H23.5V10H12.025Z" fill="white"/>
<path d="M26.4697 10V13.0418C29.2803 13.044 31.9241 14.1508 33.9109 16.1611C35.8977 18.1714 36.9915 20.8464 36.9936 23.6903H39.9998C39.9988 20.0322 38.5914 16.5945 36.0369 14.0099C33.4825 11.4252 30.085 10.0011 26.4697 10Z" fill="white"/>
<path d="M26.4686 16.0847L26.4708 19.1286C27.6741 19.1265 28.8062 19.6008 29.6588 20.4635C30.5113 21.3261 30.9801 22.4716 30.978 23.6892L33.9863 23.6914C33.9863 21.6606 33.2061 19.7503 31.7848 18.3123C30.3635 16.8742 28.4756 16.0847 26.4686 16.0847Z" fill="white"/>
<ellipse cx="26.4" cy="23.5586" rx="1.5" ry="1.51776" fill="white"/>
</svg>
