<svg width="50" height="50" viewBox="0 0 50 50" fill="none" xmlns="http://www.w3.org/2000/svg">
<rect width="50" height="50" rx="8" fill="#0396A1"/>
<path d="M33.9564 20.5604C34.4611 22.3377 34.3734 24.0932 33.9345 25.4756C33.4737 26.8799 32.5521 27.8673 31.4111 28.1965C31.2355 28.2623 31.1258 28.2623 30.9722 28.2623C30.9064 28.2842 30.8406 28.2842 30.7748 28.2842C30.7089 28.3062 30.6212 28.3062 30.5334 28.3062H23.0728L25.5085 34.3404C25.5304 34.494 25.4427 34.6257 25.3549 34.7135C25.2671 34.8232 25.0916 34.889 24.9819 34.889H21.6685C21.5588 34.889 21.3832 34.8232 21.2955 34.7135C21.2077 34.6257 21.1199 34.494 21.1419 34.3404L20.0447 28.3062H18.7062L18.6843 28.2842C18.1357 28.3501 17.4994 28.0867 16.9947 27.604C16.49 27.1213 16.0292 26.4191 15.8317 25.5414C15.5684 24.6637 15.6123 23.8298 15.8098 23.1277C16.0073 22.4475 16.4461 21.9428 16.9727 21.7014L16.9947 21.6795L26.8689 15.7549C26.9787 15.6891 27.0664 15.6452 27.1322 15.5794C27.1981 15.5355 27.2858 15.4916 27.3956 15.4477C27.5711 15.3599 27.7028 15.3161 27.9441 15.2502C29.0852 14.9211 30.4017 15.3599 31.4769 16.3254C32.5521 17.2909 33.4957 18.783 33.9564 20.5604ZM31.1258 27.1213H31.1039C31.5427 27.0115 31.9158 26.7482 32.2449 26.3533C32.8813 25.5853 33.1885 24.4223 33.1885 23.018C33.1885 22.3158 33.0787 21.5917 32.8813 20.8456C32.5082 19.3535 31.7622 18.1028 30.9283 17.2909C30.0945 16.479 29.0852 16.084 28.2294 16.3254C27.3297 16.5668 26.6934 17.3787 26.3643 18.5197C26.0132 19.6607 26.0571 21.1089 26.4301 22.6011C26.847 24.0932 27.5272 25.3439 28.4049 26.1558C29.2607 26.9677 30.1823 27.3626 31.1258 27.1213ZM28.3391 19.3535C28.5805 19.3096 28.7999 19.3316 29.0193 19.3974C29.4362 19.5729 29.8532 19.924 30.1384 20.4945C30.4237 21.0651 30.5992 21.8111 30.5992 22.4475C30.5992 22.7766 30.5553 23.0619 30.4676 23.3252C30.2701 23.8518 29.9848 24.2468 29.524 24.3565C29.151 24.4662 28.6463 24.2906 28.2733 23.9176C27.9002 23.5446 27.5711 22.9741 27.4175 22.2719C27.22 21.5917 27.2858 20.9115 27.4394 20.3848C27.593 19.8582 27.9661 19.4632 28.3391 19.3535Z" fill="white"/>
<path d="M7.46054 42.5042L9.90968 33.8057C8.33474 31.1301 7.50552 28.0859 7.50552 24.9586C7.50552 15.3295 15.3393 7.49576 24.9683 7.49576C34.5974 7.49576 42.4311 15.3295 42.4311 24.9586C42.4311 34.5876 34.5974 42.4214 24.9683 42.4214C21.968 42.4214 19.0301 41.6534 16.4311 40.1951L7.46054 42.5042ZM16.8897 37.0181L17.4242 37.3445C19.6902 38.7279 22.299 39.4591 24.9683 39.4591C32.964 39.4591 39.4688 32.9542 39.4688 24.9586C39.4688 16.963 32.964 10.458 24.9683 10.458C16.9727 10.458 10.4678 16.963 10.4678 24.9586C10.4678 27.7445 11.2596 30.45 12.7574 32.7824L13.1174 33.3429L11.707 38.3522L16.8897 37.0181Z" fill="white"/>
</svg>
